<svg xmlns="http://www.w3.org/2000/svg" width="400" height="400" viewBox="0 0 400 400">
  <path d="M 200.00 200.00 C 175.96 164.64 79.79 129.29 109.84 93.93 C 159.63 35.36 240.37 35.36 290.16 93.93 C 320.21 129.29 224.04 164.64 200.00 200.00 Z" fill="#ed8fa9" stroke="none"/>
  <path d="M 200.00 200.00 C 242.64 196.86 321.34 131.25 336.94 174.95 C 362.77 247.36 322.40 317.28 246.78 331.12 C 201.13 339.46 218.60 238.50 200.00 200.00 Z" fill="#ed8fa9" stroke="none"/>
  <path d="M 200.00 200.00 C 181.40 238.50 198.87 339.46 153.22 331.12 C 77.60 317.28 37.23 247.36 63.06 174.95 C 78.66 131.25 157.36 196.86 200.00 200.00 Z" fill="#ed8fa9" stroke="none"/>
</svg>
